<svg width="24" height="25" viewBox="0 0 24 25" fill="none" xmlns="http://www.w3.org/2000/svg">
<path fill-rule="evenodd" clip-rule="evenodd" d="M23.9999 9.95441C23.9999 14.903 20.0926 18.9147 15.2726 18.9147C13.2278 18.9147 11.3472 18.1926 9.85949 16.9833L2.05703 24.9941L0 22.8821L7.90754 14.7634C7.0451 13.374 6.54539 11.7241 6.54539 9.95441C6.54539 5.00579 10.4527 0.994141 15.2726 0.994141C20.0926 0.994141 23.9999 5.00579 23.9999 9.95441ZM21.0904 9.95449C21.0904 13.2536 18.4855 15.928 15.2722 15.928C12.059 15.928 9.45408 13.2536 9.45408 9.95449C9.45408 6.65541 12.059 3.98097 15.2722 3.98097C18.4855 3.98097 21.0904 6.65541 21.0904 9.95449Z" fill="#FF751B"/>
</svg>
